<?xml version="1.0" encoding="utf-8"?>
<!-- Generator: Adobe Illustrator 16.0.0, SVG Export Plug-In . SVG Version: 6.00 Build 0)  -->
<!DOCTYPE svg PUBLIC "-//W3C//DTD SVG 1.0//EN" "http://www.w3.org/TR/2001/REC-SVG-20010904/DTD/svg10.dtd">
<svg version="1.0" id="Layer_1" xmlns="http://www.w3.org/2000/svg" xmlns:xlink="http://www.w3.org/1999/xlink" x="0px" y="0px"
	 width="100px" height="100px" viewBox="0 0 100 100" enable-background="new 0 0 100 100" xml:space="preserve">
<circle fill="#4DD0E1" cx="50" cy="56.666" r="33.334"/>
<path fill="#E0F7FA" d="M60.142,81.325c9.696-3.991,16.528-13.522,16.528-24.659c0-1.29-0.123-2.545-0.3-3.783
	C67.051,59.102,60.788,69.44,60.142,81.325z"/>
<path fill="#E0F7FA" d="M66.236,35.546C61.738,32.083,56.121,29.999,50,29.999c-6.675,0-12.764,2.472-17.442,6.527
	c4.193,6.48,10.363,11.548,17.672,14.345C54.506,44.775,59.948,39.558,66.236,35.546z"/>
<path fill="#E0F7FA" d="M46.675,83.105c1.092,0.133,2.2,0.227,3.325,0.227c1.135,0,2.245-0.094,3.339-0.229
	c0.085-15.724,8.562-29.429,21.169-36.948c-0.887-2.068-2.047-3.987-3.401-5.748C56.544,49.092,46.758,64.935,46.675,83.105z"/>
<path fill="#E0F7FA" d="M27.984,41.632c-1.402,2.046-2.514,4.299-3.303,6.702c5.109,6.229,11.709,11.171,19.234,14.354
	c0.814-2.076,1.742-4.097,2.784-6.048C39.136,53.479,32.66,48.246,27.984,41.632z"/>
<path fill="#E0F7FA" d="M23.337,56.729c0.027,11.184,6.945,20.734,16.727,24.671c0.143-4.251,0.75-8.382,1.78-12.344
	C34.868,66.185,28.593,61.976,23.337,56.729z"/>
<path fill="#9B8579" d="M67.186,28.1c1.933,1.166,3.736,2.524,5.387,4.043l9.057-9.058c0.547,0.145,1.112,0.247,1.705,0.247
	c3.683,0,6.668-2.983,6.668-6.666c0-3.683-2.985-6.667-6.668-6.667s-6.667,2.985-6.667,6.667c0,0.592,0.104,1.154,0.247,1.701
	L67.186,28.1z"/>
<path fill="#9B8579" d="M16.666,23.333c0.593,0,1.157-0.103,1.704-0.247l9.059,9.058c1.65-1.521,3.455-2.877,5.387-4.043
	l-9.73-9.729c0.145-0.547,0.248-1.112,0.248-1.704c0-3.683-2.983-6.667-6.667-6.667C12.984,10,10,12.984,10,16.667
	C10,20.349,12.984,23.333,16.666,23.333z"/>
<path fill="#9B8579" d="M74.523,79.236L85.287,90l4.715-4.715L78.564,73.851C77.4,75.783,76.044,77.585,74.523,79.236z"/>
<path fill="#9B8579" d="M21.435,73.851L10,85.285L14.713,90l10.764-10.764C23.957,77.585,22.6,75.783,21.435,73.851z"/>
</svg>
