<?xml version="1.0" encoding="UTF-8" standalone="no"?> <svg id="Family" xmlns="http://www.w3.org/2000/svg" xmlns:xlink="http://www.w3.org/1999/xlink" viewBox="0 0 72 72"><defs><style>.cls-1{fill:url(#linear-gradient);}.cls-2{fill:url(#linear-gradient-2);}.cls-3{fill:url(#linear-gradient-3);}.cls-4{fill:url(#linear-gradient-4);}.cls-5{fill:url(#linear-gradient-5);}.cls-6{fill:url(#linear-gradient-7);}.cls-7{fill:url(#linear-gradient-8);}.cls-8{fill:url(#linear-gradient-9);}.cls-9{fill:url(#linear-gradient-10);}.cls-10{fill:url(#linear-gradient-11);}.cls-11{fill:url(#linear-gradient-12);}.cls-12{fill:url(#linear-gradient-13);}.cls-13{fill:url(#linear-gradient-14);}.cls-14{fill:url(#linear-gradient-15);}.cls-15{fill:url(#linear-gradient-16);}.cls-16{fill:url(#linear-gradient-17);}.cls-17{fill:url(#linear-gradient-18);}.cls-18{fill:url(#linear-gradient-19);}.cls-19{fill:url(#linear-gradient-20);}.cls-20{fill:url(#linear-gradient-21);}.cls-21{fill:url(#linear-gradient-22);}</style><linearGradient id="linear-gradient" x1="52" y1="9.286" x2="52" y2="40.163" gradientUnits="userSpaceOnUse"><stop offset="0" stop-color="#8a552e"/><stop offset="1" stop-color="#543426"/></linearGradient><linearGradient id="linear-gradient-2" x1="52" y1="37.732" x2="52" y2="59.458" gradientUnits="userSpaceOnUse"><stop offset="0" stop-color="#fed200"/><stop offset="1" stop-color="#f59815"/></linearGradient><linearGradient id="linear-gradient-3" x1="52" y1="30.5" x2="52" y2="50.452" xlink:href="#linear-gradient-2"/><linearGradient id="linear-gradient-4" x1="52" y1="30.982" x2="52" y2="40.062" gradientUnits="userSpaceOnUse"><stop offset="0" stop-color="#f1d2bd"/><stop offset="1" stop-color="#feb592"/></linearGradient><linearGradient id="linear-gradient-5" x1="52" y1="21.42" x2="52" y2="35.321" xlink:href="#linear-gradient-4"/><linearGradient id="linear-gradient-7" x1="61" y1="21.42" x2="61" y2="35.321" xlink:href="#linear-gradient-4"/><linearGradient id="linear-gradient-8" x1="43" y1="21.42" x2="43" y2="35.321" xlink:href="#linear-gradient-4"/><linearGradient id="linear-gradient-9" x1="20" y1="32.268" x2="20" y2="57.984" gradientUnits="userSpaceOnUse"><stop offset="0" stop-color="#6fc6fc"/><stop offset="1" stop-color="#50a7f6"/></linearGradient><linearGradient id="linear-gradient-10" x1="20" y1="34.518" x2="20" y2="40.145" gradientUnits="userSpaceOnUse"><stop offset="0" stop-color="#fff"/><stop offset="1" stop-color="#edf1f2"/></linearGradient><linearGradient id="linear-gradient-11" x1="20" y1="32.536" x2="20" y2="39.647" xlink:href="#linear-gradient-4"/><linearGradient id="linear-gradient-12" x1="20" y1="22.384" x2="20" y2="35.565" xlink:href="#linear-gradient-4"/><linearGradient id="linear-gradient-13" x1="19.561" y1="9.846" x2="19.561" y2="21.756" gradientUnits="userSpaceOnUse"><stop offset="0" stop-color="#3e4154"/><stop offset="1" stop-color="#1b2129"/></linearGradient><linearGradient id="linear-gradient-14" x1="11" y1="22.384" x2="11" y2="35.565" xlink:href="#linear-gradient-4"/><linearGradient id="linear-gradient-15" x1="29" y1="22.384" x2="29" y2="35.565" xlink:href="#linear-gradient-4"/><linearGradient id="linear-gradient-16" x1="36" y1="39.661" x2="36" y2="62.645" gradientUnits="userSpaceOnUse"><stop offset="0" stop-color="#4793eb"/><stop offset="1" stop-color="#2367ec"/></linearGradient><linearGradient id="linear-gradient-17" x1="36" y1="39.018" x2="36" y2="53.169" xlink:href="#linear-gradient-16"/><linearGradient id="linear-gradient-18" x1="36" y1="43.598" x2="36" y2="50.752" xlink:href="#linear-gradient-4"/><linearGradient id="linear-gradient-19" x1="36" y1="34.839" x2="36" y2="45.853" xlink:href="#linear-gradient-4"/><linearGradient id="linear-gradient-20" x1="35.604" y1="23.764" x2="35.604" y2="34.513" xlink:href="#linear-gradient-13"/><linearGradient id="linear-gradient-21" x1="44" y1="34.839" x2="44" y2="45.853" xlink:href="#linear-gradient-4"/><linearGradient id="linear-gradient-22" x1="28" y1="34.839" x2="28" y2="45.853" xlink:href="#linear-gradient-4"/></defs><title>Family</title><path class="cls-1" d="M52,9A12,12,0,0,0,40,21V44H64V21A12,12,0,0,0,52,9Z"/><path class="cls-2" d="M60,59H44a6,6,0,0,1-6-6V45.5A10.5,10.5,0,0,1,48.5,35h7A10.5,10.5,0,0,1,66,45.5V53A6,6,0,0,1,60,59Z"/><path class="cls-3" d="M55.5,35h-7a10.457,10.457,0,0,0-4,.793V36a7.5,7.5,0,0,0,15,0v-.207A10.457,10.457,0,0,0,55.5,35Z"/><path class="cls-4" d="M47.5,31.5h9V36A4.5,4.5,0,0,1,52,40.5h0A4.5,4.5,0,0,1,47.5,36Z"/><rect class="cls-5" x="43" y="12.5" width="18" height="23" rx="9"/><path class="cls-1" d="M62,21a10,10,0,0,0-20,0l1,3.5,1.5-3c7.5,0,10.5-3,10.5-3a5.329,5.329,0,0,0,4.5,3l1.5,3Z"/><rect class="cls-6" x="58" y="23" width="6" height="6" rx="3"/><rect class="cls-7" x="40" y="23" width="6" height="6" rx="3"/><path class="cls-8" d="M28,59H12a6,6,0,0,1-6-6V45.5A10.5,10.5,0,0,1,16.5,35h7A10.5,10.5,0,0,1,34,45.5V53A6,6,0,0,1,28,59Z"/><path class="cls-9" d="M24,41H16a2,2,0,0,1-2-2V38a4,4,0,0,1,4-4h4a4,4,0,0,1,4,4v1A2,2,0,0,1,24,41Z"/><path class="cls-10" d="M15.5,31.5h9V36A4.5,4.5,0,0,1,20,40.5h0A4.5,4.5,0,0,1,15.5,36Z"/><rect class="cls-11" x="11" y="12.5" width="18" height="23" rx="9"/><path class="cls-12" d="M11,24.819l1.5-3a5.329,5.329,0,0,0,4.5-3s3,3,10.5,3l1.5,3s4.554-5.625.509-11.116C25.531,8.3,17.054,7.616,14,11.319c0,0-5.384-.509-6,6C7.435,23.293,11,24.819,11,24.819Z"/><rect class="cls-13" x="8" y="23" width="6" height="6" rx="3"/><rect class="cls-14" x="26" y="22.25" width="6" height="6" rx="3"/><path class="cls-15" d="M44.346,63H27.654A5.153,5.153,0,0,1,22.5,57.846V55.277A9.276,9.276,0,0,1,31.777,46h8.446A9.276,9.276,0,0,1,49.5,55.277v2.569A5.153,5.153,0,0,1,44.346,63Z"/><path class="cls-16" d="M40.223,46H31.777A9.376,9.376,0,0,0,30,46.174V47a6,6,0,0,0,12,0v-.826A9.376,9.376,0,0,0,40.223,46Z"/><path class="cls-17" d="M32,43h8v4a4,4,0,0,1-4,4h0a4,4,0,0,1-4-4Z"/><rect class="cls-18" x="28" y="26" width="16" height="20" rx="7.939"/><path class="cls-19" d="M27.877,37.278l1.354-2.708a4.808,4.808,0,0,0,4.061-2.708S36,34.57,42.769,34.57l1.354,2.708s4.11-5.077.459-10.033c-3.59-4.875-11.241-5.494-14-2.152,0,0-4.859-.459-5.415,5.416C24.659,35.9,27.877,37.278,27.877,37.278Z"/><rect class="cls-20" x="41.5" y="35.5" width="5" height="5" rx="2.5"/><rect class="cls-21" x="25.5" y="35.5" width="5" height="5" rx="2.5"/></svg>