<svg viewBox="0 0 48 48" xmlns="http://www.w3.org/2000/svg" xmlns:xlink="http://www.w3.org/1999/xlink" >
<defs>



 <path fill="#000000" id="i-460" d="M20,40.032V15.693L37.848,9L20,2.307V1c0-0.553-0.447-1-1-1s-1,0.447-1,1v39.032c-3.623,0.211-7,1.563-7,3.968 c0,2.626,4.024,4,8,4s8-1.374,8-4C27,41.595,23.623,40.243,20,40.032z M20,4.443L32.152,9L20,13.557V4.443z M19,46 c-3.722,0-6-1.295-6-2c0-0.639,1.882-1.751,5-1.957V44c0,0.553,0.447,1,1,1s1-0.447,1-1v-1.957c3.118,0.206,5,1.318,5,1.957 C25,44.705,22.722,46,19,46z M36,43c0,1.656-1.343,3-3,3s-3-1.344-3-3c0-1.658,1.343-3,3-3S36,41.342,36,43z"/> 
</defs>

<use x="0" y="0" xlink:href="#i-460"/>

</svg>