<?xml version="1.0" encoding="UTF-8" standalone="no"?> <svg width="64" height="64" viewBox="0 0 64 64" fill="none" xmlns="http://www.w3.org/2000/svg">
<path d="M55.44 6H8.56C7.08621 6.00264 5.67354 6.58928 4.63141 7.63141C3.58928 8.67354 3.00264 10.0862 3 11.56V43.44C3.00264 44.9138 3.58928 46.3265 4.63141 47.3686C5.67354 48.4107 7.08621 48.9974 8.56 49H24.76C23.7203 50.0187 22.983 51.3054 22.63 52.7175C22.277 54.1296 22.322 55.6119 22.76 57H19C18.7348 57 18.4804 57.1054 18.2929 57.2929C18.1054 57.4804 18 57.7348 18 58C18 58.2652 18.1054 58.5196 18.2929 58.7071C18.4804 58.8946 18.7348 59 19 59H45C45.2652 59 45.5196 58.8946 45.7071 58.7071C45.8946 58.5196 46 58.2652 46 58C46 57.7348 45.8946 57.4804 45.7071 57.2929C45.5196 57.1054 45.2652 57 45 57H41.27C41.708 55.6119 41.753 54.1296 41.4 52.7175C41.047 51.3054 40.3097 50.0187 39.27 49H55.47C56.9386 48.9895 58.3436 48.3993 59.3792 47.3581C60.4149 46.3168 60.9974 44.9086 61 43.44V11.56C60.9974 10.0862 60.4107 8.67354 59.3686 7.63141C58.3265 6.58928 56.9138 6.00264 55.44 6V6ZM34.76 49C38.65 49.38 40.48 53.51 39.21 57H24.79C23.52 53.53 25.36 49.4 29.24 49C30 49 34 49 34.76 49ZM55.44 47H8.56C7.61664 46.9974 6.71267 46.6214 6.04561 45.9544C5.37856 45.2873 5.00264 44.3834 5 43.44V41H11C11.2652 41 11.5196 40.8946 11.7071 40.7071C11.8946 40.5196 12 40.2652 12 40C12 39.7348 11.8946 39.4804 11.7071 39.2929C11.5196 39.1054 11.2652 39 11 39H5V11.56C5.00264 10.6166 5.37856 9.71267 6.04561 9.04562C6.71267 8.37856 7.61664 8.00264 8.56 8H55.44C56.3834 8.00264 57.2873 8.37856 57.9544 9.04562C58.6214 9.71267 58.9974 10.6166 59 11.56V39H17C16.7348 39 16.4804 39.1054 16.2929 39.2929C16.1054 39.4804 16 39.7348 16 40C16 40.2652 16.1054 40.5196 16.2929 40.7071C16.4804 40.8946 16.7348 41 17 41H59V43.44C58.9974 44.3834 58.6214 45.2873 57.9544 45.9544C57.2873 46.6214 56.3834 46.9974 55.44 47V47Z" fill="url(#paint0_linear_521_14881)"/>
<path d="M14.92 39.62C14.8693 39.4988 14.7983 39.3872 14.71 39.29C14.5828 39.1558 14.421 39.0595 14.2424 39.0117C14.0638 38.964 13.8754 38.9667 13.6982 39.0195C13.5211 39.0723 13.362 39.1733 13.2388 39.311C13.1155 39.4488 13.0328 39.6181 13 39.8C12.969 39.991 12.994 40.1869 13.0721 40.3639C13.1502 40.5409 13.278 40.6914 13.44 40.7973C13.6019 40.9031 13.7911 40.9597 13.9846 40.9602C14.178 40.9607 14.3675 40.9051 14.53 40.8C14.7186 40.6762 14.8597 40.4922 14.9305 40.278C15.0013 40.0637 14.9976 39.8319 14.92 39.62V39.62Z" fill="url(#paint1_linear_521_14881)"/>
<path d="M32 42C31.4696 42 30.9609 42.2107 30.5858 42.5858C30.2107 42.9609 30 43.4696 30 44C30 44.5304 30.2107 45.0391 30.5858 45.4142C30.9609 45.7893 31.4696 46 32 46C32.5304 46 33.0391 45.7893 33.4142 45.4142C33.7893 45.0391 34 44.5304 34 44C34 43.4696 33.7893 42.9609 33.4142 42.5858C33.0391 42.2107 32.5304 42 32 42Z" fill="url(#paint2_linear_521_14881)"/>
<path d="M21.0001 34.35H43.0001C43.1759 34.3507 43.3489 34.305 43.5014 34.2175C43.654 34.13 43.7808 34.0038 43.8691 33.8517C43.9573 33.6996 44.0039 33.5268 44.004 33.351C44.0042 33.1751 43.958 33.0023 43.8701 32.85L32.8701 13.85C32.7828 13.6961 32.6564 13.5681 32.5035 13.479C32.3507 13.3899 32.1769 13.343 32.0001 13.343C31.8232 13.343 31.6494 13.3899 31.4966 13.479C31.3438 13.5681 31.2173 13.6961 31.1301 13.85L20.1301 32.9C20.054 33.0507 20.0174 33.2182 20.0236 33.3869C20.0298 33.5556 20.0786 33.72 20.1655 33.8647C20.2523 34.0095 20.3744 34.1299 20.5203 34.2147C20.6663 34.2996 20.8313 34.3461 21.0001 34.35V34.35ZM32.0001 16.35L41.2701 32.4H22.7301L32.0001 16.35Z" fill="url(#paint3_linear_521_14881)"/>
<path d="M32 27C32.2652 27 32.5196 26.8946 32.7071 26.7071C32.8946 26.5196 33 26.2652 33 26V21C33 20.7348 32.8946 20.4804 32.7071 20.2929C32.5196 20.1054 32.2652 20 32 20C31.7348 20 31.4804 20.1054 31.2929 20.2929C31.1054 20.4804 31 20.7348 31 21V26C31 26.2652 31.1054 26.5196 31.2929 26.7071C31.4804 26.8946 31.7348 27 32 27Z" fill="url(#paint4_linear_521_14881)"/>
<path d="M32 28.5C31.6685 28.5 31.3505 28.6317 31.1161 28.8661C30.8817 29.1005 30.75 29.4185 30.75 29.75C30.75 30.0815 30.8817 30.3995 31.1161 30.6339C31.3505 30.8683 31.6685 31 32 31C32.3315 31 32.6495 30.8683 32.8839 30.6339C33.1183 30.3995 33.25 30.0815 33.25 29.75C33.25 29.4185 33.1183 29.1005 32.8839 28.8661C32.6495 28.6317 32.3315 28.5 32 28.5Z" fill="url(#paint5_linear_521_14881)"/>
<defs>
<linearGradient id="paint0_linear_521_14881" x1="3" y1="32.5" x2="61" y2="32.5" gradientUnits="userSpaceOnUse">
<stop stop-color="#9F2FFF"/>
<stop offset="1" stop-color="#0BB1D3"/>
</linearGradient>
<linearGradient id="paint1_linear_521_14881" x1="38.8891" y1="118.276" x2="42.897" y2="118.276" gradientUnits="userSpaceOnUse">
<stop stop-color="#9F2FFF"/>
<stop offset="1" stop-color="#0BB1D3"/>
</linearGradient>
<linearGradient id="paint2_linear_521_14881" x1="150.12" y1="218" x2="165.88" y2="218" gradientUnits="userSpaceOnUse">
<stop stop-color="#9F2FFF"/>
<stop offset="1" stop-color="#0BB1D3"/>
</linearGradient>
<linearGradient id="paint3_linear_521_14881" x1="499.645" y1="514.149" x2="1075.19" y2="514.149" gradientUnits="userSpaceOnUse">
<stop stop-color="#9F2FFF"/>
<stop offset="1" stop-color="#0BB1D3"/>
</linearGradient>
<linearGradient id="paint4_linear_521_14881" x1="93" y1="184.5" x2="97" y2="184.5" gradientUnits="userSpaceOnUse">
<stop stop-color="#9F2FFF"/>
<stop offset="1" stop-color="#0BB1D3"/>
</linearGradient>
<linearGradient id="paint5_linear_521_14881" x1="107.675" y1="102.875" x2="113.825" y2="102.875" gradientUnits="userSpaceOnUse">
<stop stop-color="#9F2FFF"/>
<stop offset="1" stop-color="#0BB1D3"/>
</linearGradient>
</defs>
</svg>
